<!-- icon666.com - MILLIONS vector ICONS FREE --><svg id="Capa_1" enable-background="new 0 0 512 512" viewBox="0 0 512 512" xmlns="http://www.w3.org/2000/svg"><path d="m467 31h-362c-24.813 0-45 20.187-45 45v15h-15c-24.813 0-45 20.187-45 45v240c0 24.813 20.187 45 45 45h15v45c0 5.532 3.045 10.615 7.922 13.225 4.865 2.604 10.784 2.332 15.398-.744l86.222-57.481h237.458c24.813 0 45-20.187 45-45v-15h15c24.813 0 45-20.187 45-45v-240c0-24.813-20.187-45-45-45zm-45 345c0 8.271-6.729 15-15 15h-242c-2.961 0-5.856.876-8.32 2.519l-66.68 44.453v-31.972c0-8.284-6.716-15-15-15h-30c-8.271 0-15-6.729-15-15v-240c0-8.271 6.729-15 15-15h362c8.271 0 15 6.729 15 15zm60-60c0 8.271-6.729 15-15 15h-15v-195c0-24.813-20.187-45-45-45h-317v-15c0-8.271 6.729-15 15-15h362c8.271 0 15 6.729 15 15z"></path><path d="m279.077 151c-20.614 0-38.728 9.451-52.47 27.352-12.983-17.903-30.709-27.352-51.377-27.352-38.088 0-67.923 31.347-67.923 71.364 0 46.165 42.404 78.63 82.371 112.387 8.462 7.147 17.213 14.538 26.497 22.585 2.819 2.443 6.321 3.665 9.824 3.665s7.005-1.222 9.824-3.665c10.165-8.81 19.718-16.827 28.956-24.581 47.153-39.574 81.221-68.166 81.221-110.391 0-39.156-28.101-71.364-66.923-71.364zm-33.583 158.775c-6.312 5.297-12.769 10.716-19.489 16.445-5.833-4.983-11.461-9.737-16.969-14.388-44.729-37.781-71.729-60.585-71.729-89.468 0-23.195 16.657-41.364 37.923-41.364 26.992 0 35.813 32.105 36.235 33.709 1.661 6.512 7.444 11.159 14.167 11.319 6.696.168 12.752-4.165 14.705-10.619.438-1.405 11.078-34.409 38.739-34.409 21.05 0 36.923 17.782 36.923 41.364.001 28.238-28.048 51.778-70.505 87.411z"></path></svg>