<!-- icon666.com - MILLIONS vector ICONS FREE --><svg clip-rule="evenodd" fill-rule="evenodd" image-rendering="optimizeQuality" shape-rendering="geometricPrecision" text-rendering="geometricPrecision" viewBox="0 0 512 512" xmlns="http://www.w3.org/2000/svg"><g id="Layer_x0020_1"><g id="_178797000"><g><g><g id="_178796016"><path d="m462 512h-400c-27 0-49-22-49-49v-254c0-3 3-7 7-7h484c3 0 7 4 7 7v254c0 27-22 49-49 49zm-435-296v247c0 19 16 35 35 35h400c19 0 35-16 35-35v-247z"></path></g><g><g id="_178795680"><path d="m69 286c-1 0-3 0-4-1-3-2-4-6-2-10l40-69c2-3 6-5 9-3 4 2 5 7 3 10l-40 69c-1 3-4 4-6 4z"></path></g><g id="_178795656"><path d="m184 286c-1 0-2 0-3-1-4-2-5-6-3-10l40-69c2-3 6-5 10-3 3 2 4 7 2 10l-40 69c-1 3-3 4-6 4z"></path></g><g id="_178796736"><path d="m300 286c-2 0-3 0-4-1-3-2-4-6-2-10l40-69c2-3 6-5 9-3 4 2 5 7 3 10l-40 69c-2 3-4 4-6 4z"></path></g><g id="_178796544"><path d="m415 286c-1 0-2 0-4-1-3-2-4-6-2-10l40-69c2-3 6-5 10-3 3 2 4 7 2 10l-40 69c-1 3-4 4-6 4z"></path></g></g><g id="_178796784"><path d="m504 286h-484c-4 0-7-3-7-7s3-7 7-7h484c3 0 7 3 7 7s-4 7-7 7z"></path></g></g><g><g id="_178796136"><path d="m20 216c-3 0-6-2-7-5l-10-38c-3-13-1-25 5-36s16-19 28-22l429-115c1 0 3 0 5 1 1 1 3 2 3 4l21 78c1 3-1 7-5 8l-467 125c-1 0-1 0-2 0zm441-200-421 112c-9 3-16 8-20 16s-6 16-3 25l8 32 453-122z"></path></g><g><g id="_178797144"><path d="m95 196s-1 0-2 0c-3-1-5-5-4-8l23-90c1-4 5-6 9-5s6 5 5 9l-24 89c-1 3-4 5-7 5z"></path></g><g id="_178797216"><path d="m186 172c-1 0-1 0-2 0-4-1-6-5-5-9l24-89c1-4 5-6 9-5 3 1 6 5 5 9l-24 89c-1 3-4 5-7 5z"></path></g><g id="_178797288"><path d="m277 148c-1 0-2 0-2-1-4-1-6-4-5-8l24-89c1-4 5-6 8-5 4 1 6 4 5 8l-24 90c0 3-3 5-6 5z"></path></g><g id="_178797360"><path d="m367 123s-1 0-2 0c-3-1-5-5-4-8l23-90c1-3 5-6 9-5s6 5 5 9l-24 89c-1 3-4 5-7 5z"></path></g></g></g><g id="_178797096"><path d="m194 471c-2 0-3 0-4-1-2-1-3-3-3-6v-145c0-2 1-4 3-6 2-1 5-1 7 0l136 73c3 1 4 3 4 6s-1 5-4 6l-136 73c-1 0-2 0-3 0zm7-140v122l114-61z"></path></g></g></g></g></svg>